<svg width="31" height="31" viewBox="0 0 31 31" fill="none" xmlns="http://www.w3.org/2000/svg">
<path opacity="0.25" d="M23.7 18.0321H28.2803V9.57837L23.7 18.0321Z" fill="#D19627"/>
<path opacity="0.37" d="M23.7 18.0325L28.2803 22.3396V18.0325H23.7Z" fill="#D19627"/>
<path opacity="0.46" d="M3 9.57837L7.58108 18.0321H3V9.57837Z" fill="#D19627"/>
<path opacity="0.58" d="M23.991 23.0258L28.2803 22.3396L23.7 18.0325L23.991 23.0258Z" fill="#D19627"/>
<path d="M23.7001 18.0326H18.5774L20.177 14.9936L15.6402 3.01294L11.1034 14.9936L12.703 18.0326H7.58109L3 9.57886V22.3397L13.5395 24.0256L15.6402 28L17.7417 24.0256L28.2804 22.3397V9.57886L23.7001 18.0326Z" fill="url(#paint0_linear_131_120)"/>
<path opacity="0.66" d="M15.6401 3.01294V18.0517L18.5773 18.0326L20.1769 14.9936L15.6401 3.01294Z" fill="#D19627"/>
<path d="M15.6401 18.0515V27.9998L17.7416 24.0254L15.6401 18.0515Z" fill="#D19627"/>
<path opacity="0.49" d="M18.5773 18.0325L17.7416 24.0255L15.6401 18.0516L18.5773 18.0325Z" fill="#D19627"/>
<path opacity="0.55" d="M23.7001 18.0325L17.7417 24.0255L18.5774 18.0325H23.7001Z" fill="#D19627"/>
<path d="M15.6401 11.2183L17.1091 14.7873L15.6401 17.5042V11.2183Z" fill="#D19627"/>
<g style="mix-blend-mode:overlay">
<path style="mix-blend-mode:overlay" d="M15.6738 17.5232L15.6073 17.4865L18.8714 11.6533L15.6042 3.02677L15.6761 3L18.9555 11.6595L18.9463 11.6748L15.6738 17.5232Z" fill="url(#paint1_linear_131_120)"/>
</g>
<path d="M17.6873 24.133L18.5398 18.0268L18.6154 18.0375L17.795 23.9165L23.6838 17.9939H28.2802V18.0704H23.7152L17.6873 24.133Z" fill="url(#paint2_linear_131_120)"/>
<g style="mix-blend-mode:overlay" filter="url(#filter0_f_131_120)">
<circle cx="16" cy="16" r="7" fill="#FFE662"/>
</g>
<g style="mix-blend-mode:overlay" filter="url(#filter1_f_131_120)">
<circle cx="15.8531" cy="16.2557" r="5.7994" fill="#FFE662"/>
</g>
<defs>
<filter id="filter0_f_131_120" x="3" y="3" width="26" height="26" filterUnits="userSpaceOnUse" color-interpolation-filters="sRGB">
<feFlood flood-opacity="0" result="BackgroundImageFix"/>
<feBlend mode="normal" in="SourceGraphic" in2="BackgroundImageFix" result="shape"/>
<feGaussianBlur stdDeviation="3" result="effect1_foregroundBlur_131_120"/>
</filter>
<filter id="filter1_f_131_120" x="4.05371" y="4.4563" width="23.5989" height="23.5989" filterUnits="userSpaceOnUse" color-interpolation-filters="sRGB">
<feFlood flood-opacity="0" result="BackgroundImageFix"/>
<feBlend mode="normal" in="SourceGraphic" in2="BackgroundImageFix" result="shape"/>
<feGaussianBlur stdDeviation="3" result="effect1_foregroundBlur_131_120"/>
</filter>
<linearGradient id="paint0_linear_131_120" x1="15.6402" y1="6.42517" x2="15.6402" y2="24.0523" gradientUnits="userSpaceOnUse">
<stop stop-color="#F6D972"/>
<stop offset="0.02" stop-color="#F3D56F"/>
<stop offset="0.1" stop-color="#DEB855"/>
<stop offset="0.18" stop-color="#D4A440"/>
<stop offset="0.26" stop-color="#D59B2B"/>
<stop offset="0.33" stop-color="#D19627"/>
<stop offset="0.44" stop-color="#D1A33F"/>
<stop offset="0.66" stop-color="#E4C86E"/>
<stop offset="0.71" stop-color="#EBD278"/>
<stop offset="0.76" stop-color="#E8CD72"/>
<stop offset="0.83" stop-color="#E1C160"/>
<stop offset="0.91" stop-color="#D8AD42"/>
<stop offset="0.99" stop-color="#D89609"/>
<stop offset="1" stop-color="#D59002"/>
</linearGradient>
<linearGradient id="paint1_linear_131_120" x1="17.2314" y1="8.16462" x2="16.6952" y2="17.2669" gradientUnits="userSpaceOnUse">
<stop stop-color="white"/>
<stop offset="0.08" stop-color="white" stop-opacity="0.86"/>
<stop offset="0.22" stop-color="white" stop-opacity="0.64"/>
<stop offset="0.36" stop-color="white" stop-opacity="0.44"/>
<stop offset="0.5" stop-color="white" stop-opacity="0.28"/>
<stop offset="0.64" stop-color="white" stop-opacity="0.16"/>
<stop offset="0.77" stop-color="white" stop-opacity="0.07"/>
<stop offset="0.89" stop-color="white" stop-opacity="0.02"/>
<stop offset="1" stop-color="white" stop-opacity="0"/>
</linearGradient>
<linearGradient id="paint2_linear_131_120" x1="5798.36" y1="1073.43" x2="5276.51" y2="2986.01" gradientUnits="userSpaceOnUse">
<stop stop-color="white"/>
<stop offset="0.08" stop-color="white" stop-opacity="0.86"/>
<stop offset="0.22" stop-color="white" stop-opacity="0.64"/>
<stop offset="0.36" stop-color="white" stop-opacity="0.44"/>
<stop offset="0.5" stop-color="white" stop-opacity="0.28"/>
<stop offset="0.64" stop-color="white" stop-opacity="0.16"/>
<stop offset="0.77" stop-color="white" stop-opacity="0.07"/>
<stop offset="0.89" stop-color="white" stop-opacity="0.02"/>
<stop offset="1" stop-color="white" stop-opacity="0"/>
</linearGradient>
</defs>
</svg>
