<svg width="31" height="31" viewBox="0 0 31 31" fill="none" xmlns="http://www.w3.org/2000/svg">
<path opacity="0.25" d="M23.7263 18.0335H28.3134V9.57983L23.7263 18.0335Z" fill="#D19627"/>
<path opacity="0.37" d="M23.7263 18.0334L28.3134 22.3398V18.0334H23.7263Z" fill="#D19627"/>
<path opacity="0.46" d="M3 9.57983L7.58632 18.0335H3V9.57983Z" fill="#D19627"/>
<path opacity="0.58" d="M24.0177 23.0259L28.3134 22.3398L23.7263 18.0334L24.0177 23.0259Z" fill="#D19627"/>
<path d="M23.7264 18.0332H18.5978L20.1994 14.9942L15.6567 3.01367L11.114 14.9942L12.7157 18.0332H7.58631L3 9.57954V22.3395L13.5533 24.0254L15.6567 27.9998L17.7602 24.0254L28.3135 22.3395V9.57954L23.7264 18.0332Z" fill="url(#paint0_linear_131_98)"/>
<path opacity="0.66" d="M15.6567 3.01367V18.0515L18.5978 18.0332L20.1995 14.9942L15.6567 3.01367Z" fill="#D19627"/>
<path d="M15.6567 18.0518V28L17.7602 24.0256L15.6567 18.0518Z" fill="#D19627"/>
<path opacity="0.49" d="M18.5978 18.0334L17.7602 24.0256L15.6567 18.0518L18.5978 18.0334Z" fill="#D19627"/>
<path opacity="0.55" d="M23.7264 18.0334L17.7603 24.0256L18.5978 18.0334H23.7264Z" fill="#D19627"/>
<path d="M15.6567 11.2188L17.1269 14.7885L15.6567 17.5047V11.2188Z" fill="#D19627"/>
<g style="mix-blend-mode:overlay">
<path style="mix-blend-mode:overlay" d="M15.6905 17.5238L15.6231 17.4864L18.8915 11.654L15.6208 3.02677L15.6928 3L18.9764 11.6602L18.9673 11.6754L15.6905 17.5238Z" fill="url(#paint1_linear_131_98)"/>
</g>
<path d="M17.7065 24.1339L18.5594 18.0278L18.6351 18.0385L17.8136 23.9175L23.7102 17.9949H28.3134V18.0714H23.7423L17.7065 24.1339Z" fill="url(#paint2_linear_131_98)"/>
<path d="M21.5633 10.2141L21.4937 14.613L25.1613 12.183L25.9599 6.45312L21.5633 10.2141Z" fill="url(#paint3_linear_131_98)"/>
<path d="M9.75014 10.2141L9.81974 14.613L6.1513 12.183L5.35352 6.45312L9.75014 10.2141Z" fill="url(#paint4_linear_131_98)"/>
<g style="mix-blend-mode:overlay" filter="url(#filter0_f_131_98)">
<circle cx="15" cy="15" r="6" fill="#FFE662"/>
</g>
<g style="mix-blend-mode:overlay" filter="url(#filter1_f_131_98)">
<circle cx="15" cy="15" r="6" fill="#FFE662"/>
</g>
<g style="mix-blend-mode:overlay" filter="url(#filter2_f_131_98)">
<circle cx="16" cy="15" r="6" fill="#FFE662"/>
</g>
<defs>
<filter id="filter0_f_131_98" x="0" y="0" width="30" height="30" filterUnits="userSpaceOnUse" color-interpolation-filters="sRGB">
<feFlood flood-opacity="0" result="BackgroundImageFix"/>
<feBlend mode="normal" in="SourceGraphic" in2="BackgroundImageFix" result="shape"/>
<feGaussianBlur stdDeviation="4.5" result="effect1_foregroundBlur_131_98"/>
</filter>
<filter id="filter1_f_131_98" x="0" y="0" width="30" height="30" filterUnits="userSpaceOnUse" color-interpolation-filters="sRGB">
<feFlood flood-opacity="0" result="BackgroundImageFix"/>
<feBlend mode="normal" in="SourceGraphic" in2="BackgroundImageFix" result="shape"/>
<feGaussianBlur stdDeviation="4.5" result="effect1_foregroundBlur_131_98"/>
</filter>
<filter id="filter2_f_131_98" x="1" y="0" width="30" height="30" filterUnits="userSpaceOnUse" color-interpolation-filters="sRGB">
<feFlood flood-opacity="0" result="BackgroundImageFix"/>
<feBlend mode="normal" in="SourceGraphic" in2="BackgroundImageFix" result="shape"/>
<feGaussianBlur stdDeviation="4.5" result="effect1_foregroundBlur_131_98"/>
</filter>
<linearGradient id="paint0_linear_131_98" x1="15.6567" y1="6.42511" x2="15.6567" y2="24.0521" gradientUnits="userSpaceOnUse">
<stop stop-color="#F6D972"/>
<stop offset="0.02" stop-color="#F3D56F"/>
<stop offset="0.1" stop-color="#DEB855"/>
<stop offset="0.18" stop-color="#D4A440"/>
<stop offset="0.26" stop-color="#D59B2B"/>
<stop offset="0.33" stop-color="#D19627"/>
<stop offset="0.44" stop-color="#D1A33F"/>
<stop offset="0.66" stop-color="#E4C86E"/>
<stop offset="0.71" stop-color="#EBD278"/>
<stop offset="0.76" stop-color="#E8CD72"/>
<stop offset="0.83" stop-color="#E1C160"/>
<stop offset="0.91" stop-color="#D8AD42"/>
<stop offset="0.99" stop-color="#D89609"/>
<stop offset="1" stop-color="#D59002"/>
</linearGradient>
<linearGradient id="paint1_linear_131_98" x1="2150.79" y1="983.795" x2="1736.11" y2="2612.53" gradientUnits="userSpaceOnUse">
<stop stop-color="white"/>
<stop offset="0.08" stop-color="white" stop-opacity="0.86"/>
<stop offset="0.22" stop-color="white" stop-opacity="0.64"/>
<stop offset="0.36" stop-color="white" stop-opacity="0.44"/>
<stop offset="0.5" stop-color="white" stop-opacity="0.28"/>
<stop offset="0.64" stop-color="white" stop-opacity="0.16"/>
<stop offset="0.77" stop-color="white" stop-opacity="0.07"/>
<stop offset="0.89" stop-color="white" stop-opacity="0.02"/>
<stop offset="1" stop-color="white" stop-opacity="0"/>
</linearGradient>
<linearGradient id="paint2_linear_131_98" x1="8353.07" y1="330.411" x2="7831.81" y2="2243.32" gradientUnits="userSpaceOnUse">
<stop stop-color="white"/>
<stop offset="0.08" stop-color="white" stop-opacity="0.86"/>
<stop offset="0.22" stop-color="white" stop-opacity="0.64"/>
<stop offset="0.36" stop-color="white" stop-opacity="0.44"/>
<stop offset="0.5" stop-color="white" stop-opacity="0.28"/>
<stop offset="0.64" stop-color="white" stop-opacity="0.16"/>
<stop offset="0.77" stop-color="white" stop-opacity="0.07"/>
<stop offset="0.89" stop-color="white" stop-opacity="0.02"/>
<stop offset="1" stop-color="white" stop-opacity="0"/>
</linearGradient>
<linearGradient id="paint3_linear_131_98" x1="3296.22" y1="-513.088" x2="2925.17" y2="1784.38" gradientUnits="userSpaceOnUse">
<stop stop-color="#F6D972"/>
<stop offset="0.02" stop-color="#F3D56F"/>
<stop offset="0.1" stop-color="#DEB855"/>
<stop offset="0.18" stop-color="#D4A440"/>
<stop offset="0.26" stop-color="#D59B2B"/>
<stop offset="0.33" stop-color="#D19627"/>
<stop offset="0.44" stop-color="#D1A33F"/>
<stop offset="0.66" stop-color="#E4C86E"/>
<stop offset="0.71" stop-color="#EBD278"/>
<stop offset="0.76" stop-color="#E8CD72"/>
<stop offset="0.83" stop-color="#E1C160"/>
<stop offset="0.91" stop-color="#D8AD42"/>
<stop offset="0.99" stop-color="#D89609"/>
<stop offset="1" stop-color="#D59002"/>
</linearGradient>
<linearGradient id="paint4_linear_131_98" x1="2354.19" y1="-662.578" x2="1983.28" y2="1634.93" gradientUnits="userSpaceOnUse">
<stop stop-color="#F6D972"/>
<stop offset="0.02" stop-color="#F3D56F"/>
<stop offset="0.1" stop-color="#DEB855"/>
<stop offset="0.18" stop-color="#D4A440"/>
<stop offset="0.26" stop-color="#D59B2B"/>
<stop offset="0.33" stop-color="#D19627"/>
<stop offset="0.44" stop-color="#D1A33F"/>
<stop offset="0.66" stop-color="#E4C86E"/>
<stop offset="0.71" stop-color="#EBD278"/>
<stop offset="0.76" stop-color="#E8CD72"/>
<stop offset="0.83" stop-color="#E1C160"/>
<stop offset="0.91" stop-color="#D8AD42"/>
<stop offset="0.99" stop-color="#D89609"/>
<stop offset="1" stop-color="#D59002"/>
</linearGradient>
</defs>
</svg>
