<svg width="39" height="39" viewBox="0 0 39 39" fill="none" xmlns="http://www.w3.org/2000/svg">
<path opacity="0.25" d="M29.0027 22.4098H34.3149V12.6199L29.0027 22.4098Z" fill="#E7EEFF"/>
<path opacity="0.37" d="M29.0027 22.4097L34.3149 27.3967V22.4097H29.0027Z" fill="#E7EEFF"/>
<path opacity="0.46" d="M5 12.6199L10.3122 22.4098H5V12.6199Z" fill="#E7EEFF"/>
<path opacity="0.58" d="M29.3402 28.1913L34.3149 27.3967L29.0027 22.4097L29.3402 28.1913Z" fill="#E7EEFF"/>
<path d="M29.0027 22.4098H23.0633L24.9182 18.8905L19.6574 5.01611L14.3966 18.8905L16.2515 22.4098H10.3122L5 12.6199V27.3969L17.2214 29.3492L19.6574 33.9518L22.0934 29.3492L34.3148 27.3969V12.6199L29.0027 22.4098Z" fill="url(#paint0_linear_131_160)"/>
<path opacity="0.66" d="M19.6575 5.01611V22.431L23.0634 22.4098L24.9183 18.8905L19.6575 5.01611Z" fill="#E7EEFF"/>
<path d="M19.6575 22.4309V33.9517L22.0934 29.349L19.6575 22.4309Z" fill="#E7EEFF"/>
<path opacity="0.49" d="M23.0634 22.4097L22.0934 29.3491L19.6575 22.4309L23.0634 22.4097Z" fill="#E7EEFF"/>
<path opacity="0.55" d="M29.0025 22.4097L22.0933 29.3491L23.0632 22.4097H29.0025Z" fill="#E7EEFF"/>
<path d="M19.6575 14.5181L21.36 18.6521L19.6575 21.7976V14.5181Z" fill="#E7EEFF"/>
<g style="mix-blend-mode:overlay">
<path style="mix-blend-mode:overlay" d="M19.6963 21.8197L19.6184 21.7763L23.4043 15.022L19.6157 5.031L19.699 5L23.5017 15.0291L23.4911 15.0468L19.6963 21.8197Z" fill="url(#paint1_linear_131_160)"/>
</g>
<path d="M22.0312 29.4752L23.0198 22.4038L23.1066 22.4162L22.1561 29.2245L28.9848 22.3657H34.3147V22.4543H29.0211L22.0312 29.4752Z" fill="url(#paint2_linear_131_160)"/>
<path d="M26.4976 13.354L26.417 18.4483L30.6644 15.6341L31.5892 8.99854L26.4976 13.354Z" fill="url(#paint3_linear_131_160)"/>
<path d="M12.8172 13.354L12.8978 18.4483L8.65037 15.6341L7.72559 8.99854L12.8172 13.354Z" fill="url(#paint4_linear_131_160)"/>
<g style="mix-blend-mode:overlay" filter="url(#filter0_f_131_160)">
<circle cx="20" cy="19" r="7" fill="white"/>
</g>
<g style="mix-blend-mode:overlay" opacity="0.5" filter="url(#filter1_f_131_160)">
<circle cx="20" cy="19" r="7" fill="white"/>
</g>
<g style="mix-blend-mode:overlay" filter="url(#filter2_f_131_160)">
<circle cx="20" cy="19" r="4" fill="white"/>
</g>
<defs>
<filter id="filter0_f_131_160" x="6" y="5" width="28" height="28" filterUnits="userSpaceOnUse" color-interpolation-filters="sRGB">
<feFlood flood-opacity="0" result="BackgroundImageFix"/>
<feBlend mode="normal" in="SourceGraphic" in2="BackgroundImageFix" result="shape"/>
<feGaussianBlur stdDeviation="3.5" result="effect1_foregroundBlur_131_160"/>
</filter>
<filter id="filter1_f_131_160" x="6" y="5" width="28" height="28" filterUnits="userSpaceOnUse" color-interpolation-filters="sRGB">
<feFlood flood-opacity="0" result="BackgroundImageFix"/>
<feBlend mode="normal" in="SourceGraphic" in2="BackgroundImageFix" result="shape"/>
<feGaussianBlur stdDeviation="3.5" result="effect1_foregroundBlur_131_160"/>
</filter>
<filter id="filter2_f_131_160" x="9" y="8" width="22" height="22" filterUnits="userSpaceOnUse" color-interpolation-filters="sRGB">
<feFlood flood-opacity="0" result="BackgroundImageFix"/>
<feBlend mode="normal" in="SourceGraphic" in2="BackgroundImageFix" result="shape"/>
<feGaussianBlur stdDeviation="3.5" result="effect1_foregroundBlur_131_160"/>
</filter>
<linearGradient id="paint0_linear_131_160" x1="19.6574" y1="8.9668" x2="19.6574" y2="29.3802" gradientUnits="userSpaceOnUse">
<stop stop-color="white"/>
<stop offset="0.05" stop-color="white"/>
<stop offset="0.15" stop-color="#F9FBFF"/>
<stop offset="0.25" stop-color="#ECF1FF"/>
<stop offset="0.33" stop-color="#E7EEFF"/>
<stop offset="0.47" stop-color="#F7F9FF"/>
<stop offset="0.71" stop-color="white"/>
<stop offset="0.76" stop-color="white"/>
<stop offset="0.82" stop-color="white"/>
<stop offset="0.89" stop-color="#ECF5FF"/>
<stop offset="0.96" stop-color="#C7E1FF"/>
<stop offset="1" stop-color="#B3D6FF"/>
</linearGradient>
<linearGradient id="paint1_linear_131_160" x1="21.5025" y1="10.9818" x2="20.8824" y2="21.5229" gradientUnits="userSpaceOnUse">
<stop stop-color="white"/>
<stop offset="0.08" stop-color="white" stop-opacity="0.86"/>
<stop offset="0.22" stop-color="white" stop-opacity="0.64"/>
<stop offset="0.36" stop-color="white" stop-opacity="0.44"/>
<stop offset="0.5" stop-color="white" stop-opacity="0.28"/>
<stop offset="0.64" stop-color="white" stop-opacity="0.16"/>
<stop offset="0.77" stop-color="white" stop-opacity="0.07"/>
<stop offset="0.89" stop-color="white" stop-opacity="0.02"/>
<stop offset="1" stop-color="white" stop-opacity="0"/>
</linearGradient>
<linearGradient id="paint2_linear_131_160" x1="4147.43" y1="384.167" x2="3543.78" y2="2599.45" gradientUnits="userSpaceOnUse">
<stop stop-color="white"/>
<stop offset="0.08" stop-color="white" stop-opacity="0.86"/>
<stop offset="0.22" stop-color="white" stop-opacity="0.64"/>
<stop offset="0.36" stop-color="white" stop-opacity="0.44"/>
<stop offset="0.5" stop-color="white" stop-opacity="0.28"/>
<stop offset="0.64" stop-color="white" stop-opacity="0.16"/>
<stop offset="0.77" stop-color="white" stop-opacity="0.07"/>
<stop offset="0.89" stop-color="white" stop-opacity="0.02"/>
<stop offset="1" stop-color="white" stop-opacity="0"/>
</linearGradient>
<linearGradient id="paint3_linear_131_160" x1="30.0878" y1="-0.639909" x2="27.844" y2="24.7526" gradientUnits="userSpaceOnUse">
<stop stop-color="white"/>
<stop offset="0.05" stop-color="white"/>
<stop offset="0.15" stop-color="#F9FBFF"/>
<stop offset="0.25" stop-color="#ECF1FF"/>
<stop offset="0.33" stop-color="#E7EEFF"/>
<stop offset="0.47" stop-color="#F7F9FF"/>
<stop offset="0.71" stop-color="white"/>
<stop offset="0.75" stop-color="white"/>
<stop offset="0.79" stop-color="white"/>
<stop offset="0.84" stop-color="#F7F9E6"/>
<stop offset="0.9" stop-color="#EDF0BE"/>
<stop offset="0.96" stop-color="#E0E68D"/>
<stop offset="1" stop-color="#D5DD63"/>
</linearGradient>
<linearGradient id="paint4_linear_131_160" x1="400.4" y1="-765.788" x2="-29.3044" y2="1894.85" gradientUnits="userSpaceOnUse">
<stop stop-color="white"/>
<stop offset="0.05" stop-color="white"/>
<stop offset="0.15" stop-color="#F9FBFF"/>
<stop offset="0.25" stop-color="#ECF1FF"/>
<stop offset="0.33" stop-color="#E7EEFF"/>
<stop offset="0.47" stop-color="#F7F9FF"/>
<stop offset="0.71" stop-color="white"/>
<stop offset="0.75" stop-color="white"/>
<stop offset="0.79" stop-color="white"/>
<stop offset="0.84" stop-color="#F7F9E6"/>
<stop offset="0.9" stop-color="#EDF0BE"/>
<stop offset="0.96" stop-color="#E0E68D"/>
<stop offset="1" stop-color="#D5DD63"/>
</linearGradient>
</defs>
</svg>
